<svg xmlns="http://www.w3.org/2000/svg" width="17.51" height="19.499" viewBox="0 0 17.51 19.499">
  <g id="account_icon_path" transform="translate(0.754 0.75)">
    <path id="Tracé_431" data-name="Tracé 431" d="M626.14,365.952a1.006,1.006,0,0,1-1.009-1.184c.668-3.221,2.707-6.816,7.675-6.816,4.953,0,7.491,3.575,8.278,6.789a1,1,0,0,1-1,1.211Z" transform="translate(-625.111 -347.953)" fill="none" stroke="#212121" stroke-linecap="round" stroke-linejoin="round" stroke-width="1.5"/>
    <path id="Tracé_432" data-name="Tracé 432" d="M632.947,357.952h0a3.444,3.444,0,0,1-3.214-3.313l-.246-2.552a3.582,3.582,0,0,1,2.913-4.1c.1-.015.2-.027.3-.034h.492a3.558,3.558,0,0,1,3.246,3.825c-.006.1-.018.207-.033.31l-.246,2.552A3.444,3.444,0,0,1,632.947,357.952Z" transform="translate(-624.935 -347.953)" fill="none" stroke="#212121" stroke-linecap="round" stroke-linejoin="round" stroke-width="1.5"/>
  </g>
</svg>
