<svg xmlns="http://www.w3.org/2000/svg" width="39" height="39" viewBox="0 0 39 39">
  <g id="icon_path" transform="translate(-6 -5)">
    <line id="Ligne_507" data-name="Ligne 507" y2="23.5" transform="translate(7 12)" fill="none" stroke="#ccc" stroke-linecap="round" stroke-linejoin="round" stroke-width="2"/>
    <g id="euro_coin">
      <line id="Ligne_315" data-name="Ligne 315" x2="7" transform="translate(26 30)" fill="none" stroke="#ccc" stroke-linecap="round" stroke-linejoin="round" stroke-width="2"/>
      <line id="Ligne_315-2" data-name="Ligne 315" x2="7" transform="translate(26 34)" fill="none" stroke="#ccc" stroke-linecap="round" stroke-linejoin="round" stroke-width="2"/>
      <path id="Tracé_105" data-name="Tracé 105" d="M37.921,27.746a6.193,6.193,0,0,0-8.642.021,5.93,5.93,0,0,0-.306,8.147c.1.118.214.231.327.339a6.2,6.2,0,0,0,8.438.173" fill="none" stroke="#ccc" stroke-linecap="round" stroke-linejoin="round" stroke-width="2"/>
    </g>
    <g id="coins">
      <path id="Tracé_963" data-name="Tracé 963" d="M25,39.081A22.025,22.025,0,0,1,18.5,40c-6.349,0-11.493-2.355-11.493-5.255" fill="none" stroke="#ccc" stroke-linejoin="round" stroke-width="2"/>
      <ellipse id="Ellipse_564" data-name="Ellipse 564" cx="11.5" cy="5.5" rx="11.5" ry="5.5" transform="translate(7 6)" fill="none" stroke="#ccc" stroke-linecap="round" stroke-linejoin="round" stroke-width="2"/>
      <line id="Ligne_508" data-name="Ligne 508" y2="10" transform="translate(30 11)" fill="none" stroke="#ccc" stroke-linecap="round" stroke-linejoin="round" stroke-width="2"/>
      <path id="Tracé_963-2" data-name="Tracé 963" d="M21,31.876A24.918,24.918,0,0,1,18.5,32c-6.349,0-11.493-2.355-11.493-5.255" fill="none" stroke="#ccc" stroke-linecap="round" stroke-linejoin="round" stroke-width="2"/>
      <path id="Tracé_963-3" data-name="Tracé 963" d="M30,19.245c0,2.9-5.147,5.255-11.5,5.255S7.011,22.145,7.011,19.245" fill="none" stroke="#ccc" stroke-linecap="round" stroke-linejoin="round" stroke-width="2"/>
      <circle id="Ellipse_565" data-name="Ellipse 565" cx="11" cy="11" r="11" transform="translate(22 21)" fill="none" stroke="#ccc" stroke-linecap="round" stroke-linejoin="round" stroke-width="2"/>
      <circle id="Ellipse_565-2" data-name="Ellipse 565" cx="11" cy="11" r="11" transform="translate(22 21)" fill="none" stroke="#ccc" stroke-linecap="round" stroke-linejoin="round" stroke-width="2"/>
    </g>
  </g>
</svg>
