<svg xmlns="http://www.w3.org/2000/svg" width="47" height="41" viewBox="0 0 47 41">
  <g id="icon_path" transform="translate(-1 -4)">
    <circle id="Ellipse_561" data-name="Ellipse 561" cx="2.5" cy="2.5" r="2.5" transform="translate(5 39)" fill="none" stroke="#ccc" stroke-linecap="round" stroke-linejoin="round" stroke-width="2"/>
    <circle id="Ellipse_562" data-name="Ellipse 562" cx="3.5" cy="3.5" r="3.5" transform="translate(2 5)" fill="none" stroke="#ccc" stroke-linecap="round" stroke-linejoin="round" stroke-width="2"/>
    <circle id="Ellipse_563" data-name="Ellipse 563" cx="3" cy="3" r="3" transform="translate(41 9.999)" fill="none" stroke="#ccc" stroke-linecap="round" stroke-linejoin="round" stroke-width="2"/>
    <circle id="Ellipse_560" data-name="Ellipse 560" cx="15.5" cy="15.5" r="15.5" transform="translate(8.5 10)" fill="none" stroke="#ccc" stroke-linecap="round" stroke-linejoin="round" stroke-width="2"/>
    <g id="user">
      <path id="Tracé_432" data-name="Tracé 432" d="M24,25.5h0a2.715,2.715,0,0,1-2.653-2.48l-.2-1.915a2.733,2.733,0,0,1,2.353-3.07l.053-.006c.082-.011.165-.02.249-.025H24.2a2.762,2.762,0,0,1,2.681,2.844v.027a1.528,1.528,0,0,1-.027.232l-.2,1.914A2.716,2.716,0,0,1,24,25.5Z" fill="none" stroke="#ccc" stroke-linecap="round" stroke-linejoin="round" stroke-width="2"/>
      <path id="Tracé_431" data-name="Tracé 431" d="M30.6,32H17.4l.087-.742A6.334,6.334,0,0,1,23.712,26c3.362,0,6.489,2.671,6.8,5.258Z" fill="none" stroke="#ccc" stroke-linecap="round" stroke-linejoin="round" stroke-width="2"/>
    </g>
    <line id="Ligne_504" data-name="Ligne 504" y1="2.001" x2="2" transform="translate(10 36.999)" fill="none" stroke="#ccc" stroke-linecap="round" stroke-linejoin="round" stroke-width="2"/>
    <line id="Ligne_505" data-name="Ligne 505" x2="3.5" y2="3.5" transform="translate(8.5 11.5)" fill="none" stroke="#ccc" stroke-linecap="round" stroke-linejoin="round" stroke-width="2"/>
    <line id="Ligne_506" data-name="Ligne 506" x1="3" y2="2" transform="translate(38 15)" fill="none" stroke="#ccc" stroke-linecap="round" stroke-linejoin="round" stroke-width="2"/>
  </g>
</svg>
