<svg xmlns="http://www.w3.org/2000/svg" width="16" height="16" viewBox="0 0 16 16">
  <path id="linkedin" d="M14.818,16H1.183A1.166,1.166,0,0,1,0,14.854V1.146A1.166,1.166,0,0,1,1.183,0H14.818A1.166,1.166,0,0,1,16,1.146V14.854A1.166,1.166,0,0,1,14.818,16ZM9.923,7.895c.8,0,1.225.565,1.225,1.634v3.865h2.417V9.251C13.565,7.215,12.524,6,10.782,6A2.413,2.413,0,0,0,8.6,7.193V6.169H6.188c.031.662,0,6.958,0,7.225H8.6V9.359a1.577,1.577,0,0,1,.08-.586A1.345,1.345,0,0,1,9.923,7.895ZM2.434,6.169v7.225H4.85V6.169ZM3.659,2.686a1.252,1.252,0,1,0-.032,2.5h.016a1.253,1.253,0,1,0,.016-2.5Z" fill="#fff"/>
</svg>
