<svg xmlns="http://www.w3.org/2000/svg" width="15.5" height="20.499" viewBox="0 0 15.5 20.499">
  <g id="notification_icon_path" transform="translate(-109.992 -879.056)">
    <circle id="Ellipse_1102" data-name="Ellipse 1102" cx="1" cy="1" r="1" transform="translate(116.742 879.806)" fill="#f5f5f5" stroke="#212121" stroke-width="1.5"/>
    <path id="path" d="M464.019,135.681a17.118,17.118,0,0,1-1.774-2.969,5.9,5.9,0,0,1-.431-1.493c-.076-.584-.137-1.653-.159-2.213a4.367,4.367,0,0,0-8.732,0c-.022.56-.082,1.629-.159,2.213a5.906,5.906,0,0,1-.431,1.493,17.182,17.182,0,0,1-1.774,2.969,1.256,1.256,0,0,0-.27.794,1.614,1.614,0,0,0,.678,1.078c.239.167,1.571,1.182,6.322,1.182s6.082-1.015,6.322-1.182a1.614,1.614,0,0,0,.678-1.078A1.257,1.257,0,0,0,464.019,135.681Z" transform="translate(-339.547 757.072)" fill="none" stroke="#212121" stroke-width="1.5"/>
    <path id="Subtraction_9" data-name="Subtraction 9" d="M16744.742,16103.806a2,2,0,0,1-2-2,1.983,1.983,0,0,1,.295-1.045c.535.032,1.109.049,1.705.049s1.172-.017,1.705-.049a1.975,1.975,0,0,1,.3,1.045A2,2,0,0,1,16744.742,16103.806Z" transform="translate(-16627 -15205)" fill="#f5f5f5" stroke="#212121" stroke-width="1.5"/>
  </g>
</svg>
