<svg xmlns="http://www.w3.org/2000/svg" width="17" height="12" viewBox="0 0 17 12">
  <path id="youtube" d="M8.5,12c-.013,0-1.344,0-2.822-.046-.868-.027-1.616-.063-2.223-.109a9.793,9.793,0,0,1-1.606-.212,2.139,2.139,0,0,1-1.5-1.511,8.588,8.588,0,0,1-.2-1.2c-.044-.4-.079-.853-.1-1.355C0,6.709,0,6.007,0,6s0-.705.044-1.558c.025-.5.06-.956.1-1.354a8.758,8.758,0,0,1,.2-1.21A2.179,2.179,0,0,1,.9.914,2.127,2.127,0,0,1,1.848.353a10.021,10.021,0,0,1,1.6-.2C4.056.105,4.8.07,5.673.044,7.152,0,8.487,0,8.5,0s1.348,0,2.827.046c.869.027,1.618.063,2.224.109a9.66,9.66,0,0,1,1.6.212,2.139,2.139,0,0,1,1.5,1.511,8.294,8.294,0,0,1,.208,1.212c.044.4.079.856.1,1.359C17,5.3,17,6.007,17,6.014s0,.705-.044,1.558c-.025.5-.06.957-.1,1.354a8.759,8.759,0,0,1-.2,1.21,2.139,2.139,0,0,1-1.5,1.511,10.024,10.024,0,0,1-1.6.2c-.607.044-1.356.079-2.224.1C9.848,12,8.513,12,8.5,12ZM6.806,3.431h0V8.569L11.231,6,6.806,3.431Z" fill="#fff"/>
</svg>
